<svg width="321" height="67" viewBox="0 0 321 67" fill="none" xmlns="http://www.w3.org/2000/svg">
<path d="M134.234 43.76C133.554 43.9 132.714 44.01 131.714 44.09C130.734 44.19 129.824 44.24 128.984 44.24C126.444 44.24 124.564 43.93 123.344 43.31C122.144 42.69 121.344 41.66 120.944 40.22C120.544 38.78 120.344 36.6 120.344 33.68C120.344 30.8 120.544 28.64 120.944 27.2C121.344 25.74 122.144 24.7 123.344 24.08C124.564 23.44 126.444 23.12 128.984 23.12C129.844 23.12 130.754 23.17 131.714 23.27C132.674 23.37 133.474 23.5 134.114 23.66L134.114 27.11C132.374 26.91 131.024 26.81 130.064 26.81C128.244 26.81 126.984 26.95 126.284 27.23C125.584 27.49 125.134 28.06 124.934 28.94C124.734 29.82 124.634 31.4 124.634 33.68C124.634 35.96 124.734 37.54 124.934 38.42C125.134 39.3 125.584 39.88 126.284 40.16C126.984 40.42 128.244 40.55 130.064 40.55C131.584 40.55 132.974 40.45 134.234 40.25L134.234 43.76ZM144.262 44.24C142.062 44.24 140.472 44.02 139.492 43.58C138.532 43.12 137.912 42.37 137.632 41.33C137.372 40.29 137.242 38.62 137.242 36.32C137.242 34.02 137.372 32.36 137.632 31.34C137.912 30.3 138.532 29.56 139.492 29.12C140.452 28.68 142.042 28.46 144.262 28.46C146.482 28.46 148.072 28.68 149.032 29.12C149.992 29.56 150.602 30.3 150.862 31.34C151.142 32.36 151.282 34.02 151.282 36.32C151.282 38.62 151.142 40.29 150.862 41.33C150.602 42.37 149.982 43.12 149.002 43.58C148.042 44.02 146.462 44.24 144.262 44.24ZM144.262 40.94C145.302 40.94 146.012 40.84 146.392 40.64C146.792 40.44 147.032 40.06 147.112 39.5C147.212 38.94 147.262 37.88 147.262 36.32C147.262 34.76 147.212 33.71 147.112 33.17C147.032 32.61 146.792 32.24 146.392 32.06C146.012 31.86 145.302 31.76 144.262 31.76C143.222 31.76 142.502 31.86 142.102 32.06C141.722 32.24 141.482 32.61 141.382 33.17C141.302 33.71 141.262 34.76 141.262 36.32C141.262 37.88 141.302 38.94 141.382 39.5C141.482 40.06 141.722 40.44 142.102 40.64C142.502 40.84 143.222 40.94 144.262 40.94ZM154.95 44L154.95 21.71L158.97 21.71L158.97 44L154.95 44ZM169.691 44.24C167.491 44.24 165.901 44.02 164.921 43.58C163.961 43.12 163.341 42.37 163.061 41.33C162.801 40.29 162.671 38.62 162.671 36.32C162.671 34.02 162.801 32.36 163.061 31.34C163.341 30.3 163.961 29.56 164.921 29.12C165.881 28.68 167.471 28.46 169.691 28.46C171.911 28.46 173.501 28.68 174.461 29.12C175.421 29.56 176.031 30.3 176.291 31.34C176.571 32.36 176.711 34.02 176.711 36.32C176.711 38.62 176.571 40.29 176.291 41.33C176.031 42.37 175.411 43.12 174.431 43.58C173.471 44.02 171.891 44.24 169.691 44.24ZM169.691 40.94C170.731 40.94 171.441 40.84 171.821 40.64C172.221 40.44 172.461 40.06 172.541 39.5C172.641 38.94 172.691 37.88 172.691 36.32C172.691 34.76 172.641 33.71 172.541 33.17C172.461 32.61 172.221 32.24 171.821 32.06C171.441 31.86 170.731 31.76 169.691 31.76C168.651 31.76 167.931 31.86 167.531 32.06C167.151 32.24 166.911 32.61 166.811 33.17C166.731 33.71 166.691 34.76 166.691 36.32C166.691 37.88 166.731 38.94 166.811 39.5C166.911 40.06 167.151 40.44 167.531 40.64C167.931 40.84 168.651 40.94 169.691 40.94ZM180.379 28.7L184.129 28.7L184.249 31.34L184.489 31.34C184.869 30.26 185.449 29.51 186.229 29.09C187.009 28.67 188.059 28.46 189.379 28.46L189.379 32.39C188.059 32.39 187.039 32.57 186.319 32.93C185.599 33.27 185.089 33.84 184.789 34.64C184.509 35.44 184.369 36.56 184.369 38L184.369 44L180.379 44L180.379 28.7ZM205.836 43.76C205.156 43.9 204.316 44.01 203.316 44.09C202.336 44.19 201.426 44.24 200.586 44.24C198.046 44.24 196.166 43.93 194.946 43.31C193.746 42.69 192.946 41.66 192.546 40.22C192.146 38.78 191.946 36.6 191.946 33.68C191.946 30.8 192.146 28.64 192.546 27.2C192.946 25.74 193.746 24.7 194.946 24.08C196.166 23.44 198.046 23.12 200.586 23.12C201.446 23.12 202.356 23.17 203.316 23.27C204.276 23.37 205.076 23.5 205.716 23.66L205.716 27.11C203.976 26.91 202.626 26.81 201.666 26.81C199.846 26.81 198.586 26.95 197.886 27.23C197.186 27.49 196.736 28.06 196.536 28.94C196.336 29.82 196.236 31.4 196.236 33.68C196.236 35.96 196.336 37.54 196.536 38.42C196.736 39.3 197.186 39.88 197.886 40.16C198.586 40.42 199.846 40.55 201.666 40.55C203.186 40.55 204.576 40.45 205.836 40.25L205.836 43.76ZM215.863 44.24C213.663 44.24 212.073 44.02 211.093 43.58C210.133 43.12 209.513 42.37 209.233 41.33C208.973 40.29 208.843 38.62 208.843 36.32C208.843 34.02 208.973 32.36 209.233 31.34C209.513 30.3 210.133 29.56 211.093 29.12C212.053 28.68 213.643 28.46 215.863 28.46C218.083 28.46 219.673 28.68 220.633 29.12C221.593 29.56 222.203 30.3 222.463 31.34C222.743 32.36 222.883 34.02 222.883 36.32C222.883 38.62 222.743 40.29 222.463 41.33C222.203 42.37 221.583 43.12 220.603 43.58C219.643 44.02 218.063 44.24 215.863 44.24ZM215.863 40.94C216.903 40.94 217.613 40.84 217.993 40.64C218.393 40.44 218.633 40.06 218.713 39.5C218.813 38.94 218.863 37.88 218.863 36.32C218.863 34.76 218.813 33.71 218.713 33.17C218.633 32.61 218.393 32.24 217.993 32.06C217.613 31.86 216.903 31.76 215.863 31.76C214.823 31.76 214.103 31.86 213.703 32.06C213.323 32.24 213.083 32.61 212.983 33.17C212.903 33.71 212.863 34.76 212.863 36.32C212.863 37.88 212.903 38.94 212.983 39.5C213.083 40.06 213.323 40.44 213.703 40.64C214.103 40.84 214.823 40.94 215.863 40.94ZM244.431 35.9C244.431 34.64 244.381 33.76 244.281 33.26C244.181 32.74 243.971 32.41 243.651 32.27C243.351 32.11 242.821 32.03 242.061 32.03C241.301 32.03 240.741 32.16 240.381 32.42C240.021 32.66 239.781 33.06 239.661 33.62C239.541 34.16 239.481 34.98 239.481 36.08L239.481 44L235.491 44L235.491 35.9C235.491 34.64 235.441 33.76 235.341 33.26C235.241 32.74 235.031 32.41 234.711 32.27C234.411 32.11 233.881 32.03 233.121 32.03C232.361 32.03 231.801 32.16 231.441 32.42C231.081 32.66 230.841 33.06 230.721 33.62C230.601 34.18 230.541 35 230.541 36.08L230.541 44L226.551 44L226.551 28.7L230.301 28.7L230.421 30.59L230.631 30.59C231.011 29.87 231.561 29.34 232.281 29C233.021 28.64 233.941 28.46 235.041 28.46C236.241 28.46 237.151 28.63 237.771 28.97C238.411 29.31 238.871 29.85 239.151 30.59L239.391 30.59C240.151 29.17 241.651 28.46 243.891 28.46C245.131 28.46 246.081 28.68 246.741 29.12C247.401 29.56 247.841 30.21 248.061 31.07C248.301 31.91 248.421 33.04 248.421 34.46L248.421 44L244.431 44L244.431 35.9ZM252.655 28.7L256.405 28.7L256.525 30.59L256.735 30.59C257.155 29.79 257.755 29.24 258.535 28.94C259.335 28.62 260.245 28.46 261.265 28.46C262.565 28.46 263.585 28.7 264.325 29.18C265.085 29.64 265.635 30.44 265.975 31.58C266.315 32.7 266.485 34.28 266.485 36.32C266.485 38.36 266.315 39.95 265.975 41.09C265.635 42.23 265.095 43.04 264.355 43.52C263.635 44 262.635 44.24 261.355 44.24C260.275 44.24 259.365 44.1 258.625 43.82C257.905 43.54 257.325 43.04 256.885 42.32L256.645 42.32L256.645 49.97L252.655 49.97L252.655 28.7ZM259.555 40.67C260.495 40.67 261.155 40.58 261.535 40.4C261.915 40.22 262.165 39.85 262.285 39.29C262.425 38.71 262.495 37.73 262.495 36.35C262.495 34.97 262.425 33.99 262.285 33.41C262.165 32.83 261.915 32.45 261.535 32.27C261.155 32.09 260.495 32 259.555 32C258.855 32 258.305 32.09 257.905 32.27C257.525 32.45 257.245 32.74 257.065 33.14C256.905 33.48 256.795 33.9 256.735 34.4C256.675 34.9 256.645 35.55 256.645 36.35C256.645 37.17 256.665 37.83 256.705 38.33C256.765 38.81 256.875 39.21 257.035 39.53C257.215 39.93 257.505 40.22 257.905 40.4C258.305 40.58 258.855 40.67 259.555 40.67ZM273.954 44.24C272.414 44.24 271.264 43.89 270.504 43.19C269.764 42.49 269.394 41.33 269.394 39.71C269.394 38.51 269.534 37.57 269.814 36.89C270.094 36.21 270.574 35.72 271.254 35.42C271.954 35.1 272.934 34.94 274.194 34.94C275.234 34.94 276.794 34.98 278.874 35.06L278.874 34.49C278.874 33.59 278.774 32.96 278.574 32.6C278.394 32.24 278.044 32.01 277.524 31.91C277.004 31.81 276.104 31.76 274.824 31.76C274.204 31.76 273.434 31.79 272.514 31.85C271.594 31.91 270.864 31.97 270.324 32.03L270.324 28.94C272.184 28.62 274.124 28.46 276.144 28.46C278.104 28.46 279.564 28.68 280.524 29.12C281.484 29.54 282.114 30.18 282.414 31.04C282.714 31.88 282.864 33.09 282.864 34.67L282.864 44L279.114 44L278.994 42.14L278.784 42.14C278.324 42.98 277.674 43.54 276.834 43.82C275.994 44.1 275.034 44.24 273.954 44.24ZM275.844 41.09C276.504 41.09 277.034 41.02 277.434 40.88C277.854 40.72 278.184 40.47 278.424 40.13C278.724 39.65 278.874 38.9 278.874 37.88L278.874 37.4L275.274 37.4C274.674 37.4 274.234 37.45 273.954 37.55C273.674 37.63 273.484 37.8 273.384 38.06C273.284 38.32 273.234 38.73 273.234 39.29C273.234 39.83 273.294 40.22 273.414 40.46C273.554 40.7 273.794 40.87 274.134 40.97C274.494 41.05 275.064 41.09 275.844 41.09ZM296.648 35.9C296.648 34.62 296.588 33.73 296.468 33.23C296.368 32.73 296.148 32.41 295.808 32.27C295.468 32.11 294.868 32.03 294.008 32.03C293.148 32.03 292.508 32.16 292.088 32.42C291.688 32.68 291.418 33.09 291.278 33.65C291.158 34.21 291.098 35.02 291.098 36.08L291.098 44L287.108 44L287.108 28.7L290.858 28.7L290.978 30.59L291.218 30.59C291.598 29.85 292.168 29.31 292.928 28.97C293.688 28.63 294.658 28.46 295.838 28.46C297.178 28.46 298.198 28.68 298.898 29.12C299.598 29.56 300.058 30.2 300.278 31.04C300.518 31.88 300.638 33.01 300.638 34.43L300.638 44L296.648 44L296.648 35.9ZM311.132 50.18C310.212 50.18 309.272 50.15 308.312 50.09C307.352 50.03 306.562 49.95 305.942 49.85L305.942 46.79C308.042 46.85 309.462 46.88 310.202 46.88C311.562 46.88 312.522 46.78 313.082 46.58C313.662 46.4 314.022 46.07 314.162 45.59C314.322 45.11 314.402 44.28 314.402 43.1L314.402 42.02L314.192 42.02C313.812 42.72 313.252 43.23 312.512 43.55C311.792 43.87 310.852 44.03 309.692 44.03C308.352 44.03 307.332 43.81 306.632 43.37C305.932 42.93 305.462 42.3 305.222 41.48C304.982 40.64 304.862 39.51 304.862 38.09L304.862 28.7L308.852 28.7L308.852 36.62C308.852 37.9 308.902 38.79 309.002 39.29C309.122 39.79 309.352 40.12 309.692 40.28C310.052 40.42 310.662 40.49 311.522 40.49C312.382 40.49 313.012 40.36 313.412 40.1C313.812 39.84 314.072 39.44 314.192 38.9C314.332 38.36 314.402 37.55 314.402 36.47L314.402 28.7L318.392 28.7L318.392 42.26C318.392 44.34 318.242 45.91 317.942 46.97C317.642 48.03 316.972 48.83 315.932 49.37C314.912 49.91 313.312 50.18 311.132 50.18Z" fill="url(#paint0_linear)"/>
<path d="M79.5962 23.0385L91.5672 27.861L79.8629 33.3087L79.5962 23.0385Z" fill="#C78333" stroke="black"/>
<path d="M9.50454 33.0564C5.719 31.2226 3.05373 29.5484 2 28.4346L47.6522 36.1063C58.387 24.9185 81.2013 -1.86837 80.9182 34.1884C80.6553 67.6643 42.4447 52.757 9.50454 33.0564Z" fill="url(#paint1_linear)"/>
<path d="M80.9182 34.1884C57.7028 55.669 7.54433 34.2949 2 28.4346M80.9182 34.1884C81.2013 -1.86837 58.387 24.9185 47.6522 36.1063L2 28.4346M80.9182 34.1884C80.6351 70.2451 36.3276 50.1709 2 28.4346" stroke="black"/>
<ellipse cx="72.7443" cy="24.2453" rx="3.19949" ry="3.22642" fill="black"/>
<ellipse rx="0.710995" ry="0.716981" transform="matrix(1 0 0 -1 71.6779 23.1698)" fill="white"/>
<defs>
<linearGradient id="paint0_linear" x1="219.5" y1="4.66174e-07" x2="219.5" y2="66.3536" gradientUnits="userSpaceOnUse">
<stop stop-color="#58FBED"/>
<stop offset="1" stop-color="#E78E15"/>
</linearGradient>
<linearGradient id="paint1_linear" x1="41.4604" y1="16" x2="41.4604" y2="54" gradientUnits="userSpaceOnUse">
<stop stop-color="#53FFF5"/>
<stop offset="1" stop-color="#F38504"/>
</linearGradient>
</defs>
</svg>
