<svg width="1440" height="1632" viewBox="0 0 1440 1632" fill="none" xmlns="http://www.w3.org/2000/svg">
<rect opacity="0.3" x="618.963" y="430.803" width="209" height="245" rx="11" transform="rotate(-25.2878 618.963 430.803)" fill="#3C3C3C"/>
<rect opacity="0.2" x="1028.56" y="237.297" width="209" height="245" rx="11" transform="rotate(-25.2878 1028.56 237.297)" fill="#3C3C3C"/>
<rect opacity="0.3" x="1233.8" y="140.33" width="209" height="245" rx="11" transform="rotate(-25.2878 1233.8 140.33)" fill="#3C3C3C"/>
<rect opacity="0.8" x="730.791" y="668.844" width="209" height="245" rx="11" transform="rotate(-25.2878 730.791 668.844)" fill="#3C3C3C"/>
<rect opacity="0.8" x="1140.38" y="475.338" width="209" height="245" rx="11" transform="rotate(-25.2878 1140.38 475.338)" fill="#3C3C3C"/>
<rect opacity="0.2" x="1345.63" y="378.371" width="209" height="245" rx="11" transform="rotate(-25.2878 1345.63 378.371)" fill="#3C3C3C"/>
<rect opacity="0.3" x="209.858" y="622.993" width="209" height="245" rx="11" transform="rotate(-25.2878 209.858 622.993)" fill="#3C3C3C"/>
<rect opacity="0.1" x="5.36444" y="719.213" width="209" height="245" rx="11" transform="rotate(-25.2878 5.36444 719.213)" fill="#3C3C3C"/>
<rect opacity="0.3" x="-198.979" y="815.752" width="209" height="245" rx="11" transform="rotate(-25.2878 -198.979 815.752)" fill="#3C3C3C"/>
<rect opacity="0.3" x="321.685" y="861.034" width="209" height="245" rx="11" transform="rotate(-25.2878 321.685 861.034)" fill="#3C3C3C"/>
<rect opacity="0.3" x="117.192" y="957.254" width="209" height="245" rx="11" transform="rotate(-25.2878 117.192 957.254)" fill="#3C3C3C"/>
<rect opacity="0.3" x="-87.1517" y="1053.79" width="209" height="245" rx="11" transform="rotate(-25.2878 -87.1517 1053.79)" fill="#3C3C3C"/>
<rect x="798.776" y="281.335" width="209" height="245" rx="11" transform="rotate(-25.2878 798.776 281.335)" fill="url(#paint0_linear)"/>
<rect opacity="0.3" x="935.343" y="572.749" width="209" height="245" rx="11" transform="rotate(-25.2878 935.343 572.749)" fill="#3C3C3C"/>
<rect opacity="0.3" x="414.411" y="526.898" width="209" height="245" rx="11" transform="rotate(-25.2878 414.411 526.898)" fill="#3C3C3C"/>
<rect x="557.966" y="829.754" width="209" height="245" rx="11" transform="rotate(-25.2878 557.966 829.754)" fill="url(#paint1_linear)"/>
<rect opacity="0.3" x="727.904" y="610.376" width="74" height="17" rx="7" transform="rotate(-25.2878 727.904 610.376)" fill="#505050"/>
<rect opacity="0.2" x="1137.5" y="416.87" width="74" height="17" rx="7" transform="rotate(-25.2878 1137.5 416.87)" fill="#505050"/>
<rect opacity="0.3" x="1342.74" y="319.903" width="74" height="17" rx="7" transform="rotate(-25.2878 1342.74 319.903)" fill="#505050"/>
<rect opacity="0.8" x="839.731" y="848.417" width="74" height="17" rx="7" transform="rotate(-25.2878 839.731 848.417)" fill="#505050"/>
<rect opacity="0.8" x="1249.32" y="654.911" width="74" height="17" rx="7" transform="rotate(-25.2878 1249.32 654.911)" fill="#505050"/>
<rect opacity="0.3" x="318.798" y="802.566" width="74" height="17" rx="7" transform="rotate(-25.2878 318.798 802.566)" fill="#505050"/>
<rect opacity="0.1" x="114.305" y="898.786" width="74" height="17" rx="7" transform="rotate(-25.2878 114.305 898.786)" fill="#505050"/>
<rect x="907.717" y="460.908" width="74" height="17" rx="7" transform="rotate(-25.2878 907.717 460.908)" fill="white"/>
<rect opacity="0.3" x="1044.28" y="752.322" width="74" height="17" rx="7" transform="rotate(-25.2878 1044.28 752.322)" fill="#505050"/>
<rect opacity="0.3" x="523.351" y="706.471" width="74" height="17" rx="7" transform="rotate(-25.2878 523.351 706.471)" fill="#505050"/>
<rect x="666.906" y="1009.33" width="74" height="17" rx="7" transform="rotate(-25.2878 666.906 1009.33)" fill="white"/>
<rect opacity="0.3" x="718.549" y="590.464" width="74" height="17" rx="7" transform="rotate(-25.2878 718.549 590.464)" fill="#505050"/>
<rect opacity="0.2" x="1128.14" y="396.958" width="74" height="17" rx="7" transform="rotate(-25.2878 1128.14 396.958)" fill="#505050"/>
<rect opacity="0.3" x="1333.39" y="299.991" width="74" height="17" rx="7" transform="rotate(-25.2878 1333.39 299.991)" fill="#505050"/>
<rect opacity="0.8" x="830.377" y="828.505" width="74" height="17" rx="7" transform="rotate(-25.2878 830.377 828.505)" fill="#505050"/>
<rect opacity="0.8" x="1239.97" y="634.999" width="74" height="17" rx="7" transform="rotate(-25.2878 1239.97 634.999)" fill="#505050"/>
<rect opacity="0.3" x="309.444" y="782.654" width="74" height="17" rx="7" transform="rotate(-25.2878 309.444 782.654)" fill="#505050"/>
<rect opacity="0.1" x="104.95" y="878.874" width="74" height="17" rx="7" transform="rotate(-25.2878 104.95 878.874)" fill="#505050"/>
<rect opacity="0.3" x="421.271" y="1020.69" width="74" height="17" rx="7" transform="rotate(-25.2878 421.271 1020.69)" fill="#505050"/>
<rect x="216.778" y="1116.91" width="74" height="17" rx="7" transform="rotate(-25.2878 216.778 1116.91)" fill="#505050"/>
<rect x="12.4343" y="1213.45" width="74" height="17" rx="7" transform="rotate(-25.2878 12.4343 1213.45)" fill="#505050"/>
<rect x="898.363" y="440.996" width="74" height="17" rx="7" transform="rotate(-25.2878 898.363 440.996)" fill="white"/>
<rect opacity="0.3" x="1034.93" y="732.41" width="74" height="17" rx="7" transform="rotate(-25.2878 1034.93 732.41)" fill="#505050"/>
<rect opacity="0.3" x="513.997" y="686.559" width="74" height="17" rx="7" transform="rotate(-25.2878 513.997 686.559)" fill="#505050"/>
<rect x="657.552" y="989.415" width="74" height="17" rx="7" transform="rotate(-25.2878 657.552 989.415)" fill="white"/>
<rect opacity="0.3" x="800.913" y="551.771" width="74" height="17" rx="7" transform="rotate(-25.2878 800.913 551.771)" fill="#505050"/>
<rect opacity="0.2" x="1210.51" y="358.264" width="74" height="17" rx="7" transform="rotate(-25.2878 1210.51 358.264)" fill="#505050"/>
<rect opacity="0.3" x="1415.75" y="261.298" width="74" height="17" rx="7" transform="rotate(-25.2878 1415.75 261.298)" fill="#505050"/>
<rect opacity="0.8" x="912.741" y="789.812" width="74" height="17" rx="7" transform="rotate(-25.2878 912.741 789.812)" fill="#505050"/>
<rect opacity="0.8" x="1322.33" y="596.306" width="74" height="17" rx="7" transform="rotate(-25.2878 1322.33 596.306)" fill="#505050"/>
<rect opacity="0.3" x="391.808" y="743.96" width="74" height="17" rx="7" transform="rotate(-25.2878 391.808 743.96)" fill="#505050"/>
<rect opacity="0.1" x="187.314" y="840.181" width="74" height="17" rx="7" transform="rotate(-25.2878 187.314 840.181)" fill="#505050"/>
<rect opacity="0.3" x="-17.0289" y="936.72" width="74" height="17" rx="7" transform="rotate(-25.2878 -17.0289 936.72)" fill="#505050"/>
<rect opacity="0.3" x="503.635" y="982.002" width="74" height="17" rx="7" transform="rotate(-25.2878 503.635 982.002)" fill="#505050"/>
<rect x="299.142" y="1078.22" width="74" height="17" rx="7" transform="rotate(-25.2878 299.142 1078.22)" fill="#505050"/>
<rect x="94.7984" y="1174.76" width="74" height="17" rx="7" transform="rotate(-25.2878 94.7984 1174.76)" fill="#505050"/>
<rect x="980.727" y="402.303" width="74" height="17" rx="7" transform="rotate(-25.2878 980.727 402.303)" fill="white"/>
<rect opacity="0.3" x="1117.29" y="693.717" width="74" height="17" rx="7" transform="rotate(-25.2878 1117.29 693.717)" fill="#505050"/>
<rect opacity="0.3" x="596.361" y="647.866" width="74" height="17" rx="7" transform="rotate(-25.2878 596.361 647.866)" fill="#505050"/>
<rect x="739.916" y="950.722" width="74" height="17" rx="7" transform="rotate(-25.2878 739.916 950.722)" fill="white"/>
<rect opacity="0.3" x="647.548" y="439.418" width="165" height="53" rx="7" transform="rotate(-25.2878 647.548 439.418)" fill="#505050"/>
<rect opacity="0.2" x="1057.14" y="245.912" width="165" height="53" rx="7" transform="rotate(-25.2878 1057.14 245.912)" fill="#505050"/>
<rect opacity="0.3" x="1262.39" y="148.945" width="165" height="53" rx="7" transform="rotate(-25.2878 1262.39 148.945)" fill="#505050"/>
<rect x="759.375" y="677.46" width="165" height="53" rx="7" transform="rotate(-25.2878 759.375 677.46)" fill="#505050"/>
<rect x="1168.97" y="483.953" width="165" height="53" rx="7" transform="rotate(-25.2878 1168.97 483.953)" fill="#505050"/>
<rect opacity="0.2" x="1374.21" y="386.987" width="165" height="53" rx="7" transform="rotate(-25.2878 1374.21 386.987)" fill="#505050"/>
<rect opacity="0.3" x="238.443" y="631.608" width="165" height="53" rx="7" transform="rotate(-25.2878 238.443 631.608)" fill="#505050"/>
<rect opacity="0.1" x="33.9489" y="727.828" width="165" height="53" rx="7" transform="rotate(-25.2878 33.9489 727.828)" fill="#505050"/>
<rect opacity="0.3" x="-170.394" y="824.367" width="165" height="53" rx="7" transform="rotate(-25.2878 -170.394 824.367)" fill="#505050"/>
<rect opacity="0.3" x="350.27" y="869.649" width="165" height="53" rx="7" transform="rotate(-25.2878 350.27 869.649)" fill="#505050"/>
<rect opacity="0.3" x="145.776" y="965.869" width="165" height="53" rx="7" transform="rotate(-25.2878 145.776 965.869)" fill="#505050"/>
<rect opacity="0.3" x="-58.5671" y="1062.41" width="165" height="53" rx="7" transform="rotate(-25.2878 -58.5671 1062.41)" fill="#505050"/>
<rect x="827.361" y="289.95" width="165" height="53" rx="7" transform="rotate(-25.2878 827.361 289.95)" fill="white"/>
<rect opacity="0.3" x="963.928" y="581.365" width="165" height="53" rx="7" transform="rotate(-25.2878 963.928 581.365)" fill="#505050"/>
<rect opacity="0.3" x="442.995" y="535.513" width="165" height="53" rx="7" transform="rotate(-25.2878 442.995 535.513)" fill="#505050"/>
<rect x="586.55" y="838.369" width="165" height="53" rx="7" transform="rotate(-25.2878 586.55 838.369)" fill="white"/>
<rect opacity="0.3" x="698.596" y="548.019" width="165" height="28" rx="7" transform="rotate(-25.2878 698.596 548.019)" fill="#686868"/>
<rect opacity="0.2" x="1108.19" y="354.512" width="165" height="28" rx="7" transform="rotate(-25.2878 1108.19 354.512)" fill="#686868"/>
<rect opacity="0.3" x="1313.44" y="257.546" width="165" height="28" rx="7" transform="rotate(-25.2878 1313.44 257.546)" fill="#686868"/>
<rect opacity="0.8" x="810.423" y="786.06" width="165" height="28" rx="7" transform="rotate(-25.2878 810.423 786.06)" fill="#686868"/>
<rect opacity="0.8" x="1220.02" y="592.554" width="165" height="28" rx="7" transform="rotate(-25.2878 1220.02 592.554)" fill="#686868"/>
<rect opacity="0.2" x="1425.26" y="495.587" width="165" height="28" rx="7" transform="rotate(-25.2878 1425.26 495.587)" fill="#686868"/>
<rect opacity="0.3" x="289.491" y="740.208" width="165" height="28" rx="7" transform="rotate(-25.2878 289.491 740.208)" fill="#686868"/>
<rect opacity="0.1" x="84.9973" y="836.429" width="165" height="28" rx="7" transform="rotate(-25.2878 84.9973 836.429)" fill="#686868"/>
<rect opacity="0.3" x="-119.346" y="932.968" width="165" height="28" rx="7" transform="rotate(-25.2878 -119.346 932.968)" fill="#686868"/>
<rect opacity="0.3" x="401.318" y="978.25" width="165" height="28" rx="7" transform="rotate(-25.2878 401.318 978.25)" fill="#686868"/>
<rect opacity="0.3" x="196.825" y="1074.47" width="165" height="28" rx="7" transform="rotate(-25.2878 196.825 1074.47)" fill="#686868"/>
<rect opacity="0.3" x="-7.51874" y="1171.01" width="165" height="28" rx="7" transform="rotate(-25.2878 -7.51874 1171.01)" fill="#686868"/>
<rect x="878.409" y="398.551" width="165" height="28" rx="7" transform="rotate(-25.2878 878.409 398.551)" fill="white"/>
<rect opacity="0.3" x="1014.98" y="689.965" width="165" height="28" rx="7" transform="rotate(-25.2878 1014.98 689.965)" fill="#686868"/>
<rect opacity="0.3" x="494.044" y="644.114" width="165" height="28" rx="7" transform="rotate(-25.2878 494.044 644.114)" fill="#686868"/>
<rect x="637.599" y="946.969" width="165" height="28" rx="7" transform="rotate(-25.2878 637.599 946.969)" fill="white"/>
<rect opacity="0.3" x="679.037" y="506.384" width="165" height="28" rx="7" transform="rotate(-25.2878 679.037 506.384)" fill="#686868"/>
<rect opacity="0.2" x="1088.63" y="312.878" width="165" height="28" rx="7" transform="rotate(-25.2878 1088.63 312.878)" fill="#686868"/>
<rect opacity="0.3" x="1293.88" y="215.911" width="165" height="28" rx="7" transform="rotate(-25.2878 1293.88 215.911)" fill="#686868"/>
<rect opacity="0.8" x="790.864" y="744.425" width="165" height="28" rx="7" transform="rotate(-25.2878 790.864 744.425)" fill="#686868"/>
<rect opacity="0.8" x="1200.46" y="550.919" width="165" height="28" rx="7" transform="rotate(-25.2878 1200.46 550.919)" fill="#686868"/>
<rect opacity="0.2" x="1405.7" y="453.953" width="165" height="28" rx="7" transform="rotate(-25.2878 1405.7 453.953)" fill="#686868"/>
<rect opacity="0.3" x="269.932" y="698.574" width="165" height="28" rx="7" transform="rotate(-25.2878 269.932 698.574)" fill="#686868"/>
<rect opacity="0.1" x="65.4382" y="794.794" width="165" height="28" rx="7" transform="rotate(-25.2878 65.4382 794.794)" fill="#686868"/>
<rect opacity="0.3" x="-138.905" y="891.333" width="165" height="28" rx="7" transform="rotate(-25.2878 -138.905 891.333)" fill="#686868"/>
<rect opacity="0.3" x="381.759" y="936.615" width="165" height="28" rx="7" transform="rotate(-25.2878 381.759 936.615)" fill="#686868"/>
<rect opacity="0.3" x="177.265" y="1032.84" width="165" height="28" rx="7" transform="rotate(-25.2878 177.265 1032.84)" fill="#686868"/>
<rect opacity="0.3" x="-27.0778" y="1129.37" width="165" height="28" rx="7" transform="rotate(-25.2878 -27.0778 1129.37)" fill="#686868"/>
<rect x="858.85" y="356.916" width="165" height="28" rx="7" transform="rotate(-25.2878 858.85 356.916)" fill="white"/>
<rect opacity="0.3" x="995.417" y="648.33" width="165" height="28" rx="7" transform="rotate(-25.2878 995.417 648.33)" fill="#686868"/>
<rect opacity="0.3" x="474.484" y="602.479" width="165" height="28" rx="7" transform="rotate(-25.2878 474.484 602.479)" fill="#686868"/>
<rect x="618.039" y="905.335" width="165" height="28" rx="7" transform="rotate(-25.2878 618.039 905.335)" fill="white"/>
<rect opacity="0.3" x="430.626" y="1040.61" width="74" height="17" rx="7" transform="rotate(-25.2878 430.626 1040.61)" fill="#505050"/>
<rect x="226.132" y="1136.83" width="74" height="17" rx="7" transform="rotate(-25.2878 226.132 1136.83)" fill="#505050"/>
<rect x="21.7886" y="1233.37" width="74" height="17" rx="7" transform="rotate(-25.2878 21.7886 1233.37)" fill="#505050"/>
<rect x="3" y="931" width="1433" height="701" fill="url(#paint2_linear)"/>
<defs>
<linearGradient id="paint0_linear" x1="903.276" y1="281.335" x2="903.276" y2="526.335" gradientUnits="userSpaceOnUse">
<stop stop-color="#FFEE51"/>
<stop offset="1" stop-color="#B251FF" stop-opacity="0.66"/>
</linearGradient>
<linearGradient id="paint1_linear" x1="662.466" y1="829.754" x2="662.466" y2="1074.75" gradientUnits="userSpaceOnUse">
<stop stop-color="#B9DA5C"/>
<stop offset="1" stop-color="#53A0D8"/>
</linearGradient>
<linearGradient id="paint2_linear" x1="719.5" y1="1632" x2="719.5" y2="931" gradientUnits="userSpaceOnUse">
<stop stop-color="#434343"/>
<stop offset="1" stop-color="#434343" stop-opacity="0"/>
</linearGradient>
</defs>
</svg>
