<svg width="1439" height="1460" viewBox="0 0 1439 1460" fill="none" xmlns="http://www.w3.org/2000/svg">
<path d="M250.936 414.01C161.581 688.279 1005.75 798.949 1439 820V0L0 0C120.877 23.7245 340.291 139.741 250.936 414.01Z" fill="#242424"/>
<ellipse cx="891.925" cy="397.191" rx="19.2951" ry="39.1989" transform="rotate(80 891.925 397.191)" fill="#D76800"/>
<ellipse cx="1030.89" cy="397.191" rx="19.2951" ry="39.1989" transform="rotate(-80 1030.89 397.191)" fill="#D76800"/>
<ellipse cx="887.954" cy="397.191" rx="19.2951" ry="39.1989" transform="rotate(80 887.954 397.191)" fill="#FD7B00"/>
<ellipse cx="1034.87" cy="397.191" rx="19.2951" ry="39.1989" transform="rotate(-80 1034.87 397.191)" fill="#FD7B00"/>
<rect x="834.088" y="57.7061" width="250.147" height="341.471" rx="111.176" fill="#090100"/>
<rect x="877.765" y="109.323" width="178.676" height="162.794" rx="75.4412" fill="#ECECEC"/>
<rect x="861.882" y="109.323" width="186.618" height="166.765" rx="83.3823" fill="white"/>
<rect x="877.765" y="216.529" width="178.676" height="154.853" rx="75.4412" fill="#ECECEC"/>
<rect x="861.882" y="204.618" width="182.647" height="166.765" rx="75.4412" fill="white"/>
<path d="M914.137 44.5544C912.245 41.026 916.173 37.2333 919.633 39.2466L959.117 62.22C961.394 63.5447 961.774 66.6785 959.879 68.5082L941.976 85.7969C940.081 87.6266 936.962 87.138 935.718 84.8165L914.137 44.5544Z" fill="black"/>
<path d="M945.355 39.2374C946.778 35.6267 952.003 35.992 952.909 39.7656L964.016 85.9868C964.643 88.5958 962.555 91.0626 959.878 90.8754L931.341 88.8799C928.664 88.6927 926.94 85.9594 927.923 83.463L945.355 39.2374Z" fill="black"/>
<path d="M962.713 226.686C959.693 232.848 950.807 232.538 948.224 226.18L940.273 206.606C938.107 201.273 942.156 195.48 947.907 195.681L965.157 196.283C970.908 196.484 974.543 202.546 972.01 207.714L962.713 226.686Z" fill="#D76800"/>
<path d="M963.92 221.565C960.813 226.563 953.54 226.563 950.433 221.565L940.651 205.833C937.362 200.543 941.166 193.699 947.395 193.699H966.958C973.187 193.699 976.991 200.543 973.702 205.833L963.92 221.565Z" fill="#FD7B00"/>
<rect x="937.323" y="176.823" width="39.7059" height="19.8529" fill="white"/>
<circle cx="931.368" cy="174.838" r="13.8971" fill="black"/>
<circle cx="986.956" cy="174.838" r="13.8971" fill="black"/>
<circle cx="925.412" cy="168.882" r="3.97059" fill="white"/>
<circle cx="981" cy="168.882" r="3.97059" fill="white"/>
<rect x="857.912" y="110.548" width="90.5782" height="29.839" rx="14.9195" transform="rotate(-16 857.912 110.548)" fill="#090100"/>
<rect x="969.395" y="85.5002" width="90.8729" height="29.9235" rx="14.9618" transform="rotate(16 969.395 85.5002)" fill="#090100"/>
<path d="M960.814 128.479C957.711 131.59 952.671 131.59 949.568 128.479L936.036 114.909C931.044 109.903 934.589 101.36 941.659 101.36H968.724C975.793 101.36 979.339 109.903 974.347 114.909L960.814 128.479Z" fill="#090100"/>
<ellipse cx="915.485" cy="194.691" rx="9.92647" ry="5.95588" fill="#FF91A3"/>
<ellipse cx="998.867" cy="194.691" rx="9.92647" ry="5.95588" fill="#FF91A3"/>
<ellipse cx="881.483" cy="275.845" rx="23.8235" ry="59.5588" transform="rotate(-37.1963 881.483 275.845)" fill="#090100"/>
<rect x="883.5" y="271.469" width="151" height="100" rx="16" transform="rotate(-15.152 883.5 271.469)" fill="#B7B7B7"/>
<ellipse cx="1028.01" cy="278.604" rx="23.8235" ry="59.5588" transform="rotate(51.7104 1028.01 278.604)" fill="#090100"/>
<path d="M220 491C202.8 659.4 659.833 424.833 887 284.5L908 357.5C723.5 836.5 1268 532.167 1440.5 575.5V1390C1440.5 1317.5 1379.1 1216 1133.5 1390C887.9 1564 275.5 1370.83 0 1252.5V658C80.5 532.167 237.2 322.6 220 491Z" fill="#5B4CBB"/>
</svg>
